# xmcd
#
# Track frame offsets: 
#        182
#        12962
#        25102
#        39800
#        53295
#        65307
#        79910
#        90392
#        103487
#        116857
#        133277
#        144082
#        155347
#        167495
#        184467
#        204840
#        216787
#        226945
#
# Disc length: 3149 seconds
#
# Revision: 2
# Processed by: cddbd v1.5.2PL0 Copyright (c) Steve Scherf et al.
# Submitted via: ExactAudioCopy v0.99pb5
#
DISCID=e50c4b12
DTITLE=Various Artist - Original blues [Vogue] | CD1
DYEAR=1994
DGENRE=Blues
TTITLE0=Muddy Waters - I'm your hoochie coochie man
TTITLE1=Little Walter - My babe
TTITLE2=Eddie Boyd - Third degree
TTITLE3=Koko Taylor - Wang dang doodle
TTITLE4=Howlin' Wolf - Built for comfort
TTITLE5=Muddy Waters - Good morning little schoolgirl
TTITLE6=Menphis Slim - Having fun
TTITLE7=Muddy Waters - Mannish boy
TTITLE8=John Lee Hooker - One bourbon, one scotch, one beer
TTITLE9=Howlin' Wolf - Rockin' daddy
TTITLE10=JB Lenoir - I don't know
TTITLE11=BB King - Tickle britches
TTITLE12=John Lee Hooker - I'm in the mood
TTITLE13=Howlin' Wolf - Sitting on the top of the world
TTITLE14=Champion Jack Dupree - In the evening
TTITLE15=Sonny Boy Williamson - Keep your hand out of my pocket
TTITLE16=Chuck Berry - Memphis Tennessee
TTITLE17=Lightnin' Hopkins - Cofee house blues
EXTD=
EXTT0=
EXTT1=
EXTT2=
EXTT3=
EXTT4=
EXTT5=
EXTT6=
EXTT7=
EXTT8=
EXTT9=
EXTT10=
EXTT11=
EXTT12=
EXTT13=
EXTT14=
EXTT15=
EXTT16=
EXTT17=
PLAYORDER=
